<mxfile host="app.diagrams.net" modified="2023-06-06T18:04:45.487Z" agent="Mozilla/5.0 (Macintosh; Intel Mac OS X 10_15_7) AppleWebKit/537.36 (KHTML, like Gecko) Chrome/114.0.0.0 Safari/537.36" version="21.3.2" etag="rzST4831hsZChvyEf4w4" type="github">
  <diagram name="Page-1" id="PCFXS-JAIQ8bynVuSYlD">
    <mxGraphModel>
      <root>
        <mxCell id="0" />
        <mxCell id="1" parent="0" />
      </root>
    </mxGraphModel>
  </diagram>
</mxfile>
